[Header]
FileType HTR
DataType HTRS
FileVersion 1
NumSegments 22
NumFrames 8
DataFrameRate 24
EulerRotationOrder ZYX
CalibrationUnits mm
RotationUnits Degrees
GlobalAxisofGravity Y
BoneLengthAxis Y
ScaleFactor 1.0
[SegmentNames&Hierarchy]
reference	GLOBAL
Hips	reference
Spine	Hips
Spine1	Spine
Neck	Spine1
Head	Neck
LeftShoulder	Spine1
LeftArm	LeftShoulder
LeftForeArm	LeftArm
LeftHand	LeftForeArm
RightShoulder	Spine1
RightArm	RightShoulder
RightForeArm	RightArm
RightHand	RightForeArm
LeftUpLeg	Hips
LeftLeg	LeftUpLeg
LeftFoot	LeftLeg
LeftToeBase	LeftFoot
RightUpLeg	Hips
RightLeg	RightUpLeg
RightFoot	RightLeg
RightToeBase	RightFoot
[BasePosition]
reference	0	0	0	0	0	0	1
Hips	0	0	0	0	0	0	1
Spine	0	0	0	0	-0	90	1
Spine1	0	0	0	0	0	0	1
Neck	0	0	0	-7.352327771	-7.352327771	90	1
Head	0	0	0	0	-0	90	1
LeftShoulder	0	0	0	0	0	0	1
LeftArm	0	0	0	0	0	0	1
LeftForeArm	0	0	0	0	0	0	1
LeftHand	0	0	0	0	0	0	1
RightShoulder	0	0	0	0	-0	180	1
RightArm	0	0	0	0	-0	180	1
RightForeArm	0	0	0	0	-0	180	1
RightHand	0	0	0	0	-0	180	1
LeftUpLeg	0	0	0	0	-0	-90	1
LeftLeg	0	0	0	0	-0	-90	1
LeftFoot	0	0	0	66.57146043	-66.57146043	-90	1
LeftToeBase	0	0	0	0	-90	0	1
RightUpLeg	0	0	0	0	-0	-90	1
RightLeg	0	0	0	0	-0	-90	1
RightFoot	0	0	0	66.57146043	-66.57146043	-90	1
RightToeBase	0	0	0	0	-90	0	1
[reference]
1	0	0	0	0	-0	0	1.0
2	0	0	0	0	-0	0	1.0
3	0	0	0	0	-0	0	1.0
4	0	0	0	0	-0	0	1.0
5	0	0	0	0	-0	0	1.0
6	0	0	0	0	-0	0	1.0
7	0	0	0	0	-0	0	1.0
8	0	0	0	0	-0	0	1.0
[Hips]
1	4.175960064	8.377349854	1.157429934	4.713104248	-130.4347687	-1.193908691	1.0
2	4.175960064	8.377349854	1.157429934	4.666283131	-130.4476013	-1.217687368	1.0
3	4.175960064	8.377349854	1.155599236	4.722924232	-130.4271088	-1.343480349	1.0
4	4.175960064	8.377349854	1.152319431	4.766649246	-130.3952637	-1.448489189	1.0
5	4.175960064	8.377349854	1.149027467	4.807119846	-130.3206787	-1.555531263	1.0
6	4.193798065	8.377349854	1.145725369	4.933718681	-130.2131958	-1.681949854	1.0
7	4.212483883	8.377349854	1.142414808	4.876495361	-130.0847168	-1.688995361	1.0
8	4.231121063	8.377349854	1.139097691	4.835167885	-129.969696	-1.81298542	1.0
[Spine]
1	0	0.7457100153	0	-10.96015453	1.131618977	-90.53304291	1.0
2	0	0.7457100153	0	-10.98010921	1.132613301	-90.47761536	1.0
3	0	0.7457100153	0	-11.025774	1.105521321	-90.47518158	1.0
4	0	0.7457100153	0	-11.02436829	1.080343246	-90.45130157	1.0
5	0	0.7457100153	0	-10.98142815	1.044059157	-90.39533234	1.0
6	0	0.7457100153	0	-10.9528389	0.985298574	-90.39452362	1.0
7	0	0.7457100153	0	-10.91073418	0.9150854349	-90.36116028	1.0
8	0	0.7457100153	0	-10.87473011	0.8284699917	-90.35438538	1.0
[Spine1]
1	0	2.140589952	0	7.321612358	0.3035024405	1.315738082	1.0
2	0	2.140589952	0	7.331165791	0.3035024405	1.241944551	1.0
3	0	2.140589952	0	7.394352913	0.2994624674	1.255800128	1.0
4	0	2.140589952	0	7.424131393	0.2916572094	1.183727026	1.0
5	0	2.140589952	0	7.451274395	0.2819651067	1.157945633	1.0
6	0	2.140589952	0	7.449035645	0.2617887557	1.170318842	1.0
7	0	2.140589952	0	7.533193111	0.2357297391	1.204280257	1.0
8	0	2.140589952	0	7.640612602	0.2019967437	1.208490252	1.0
[Neck]
1	0	2.32246995	0	-11.2824564	15.77703285	-90.91156006	1.0
2	0	2.32246995	0	-11.22328472	15.77876854	-90.89329529	1.0
3	0	2.32246995	0	-11.28298283	15.79339504	-91.02667236	1.0
4	0	2.32246995	0	-11.39861488	15.83163548	-91.18768311	1.0
5	0	2.32246995	0	-11.49350929	15.8086586	-91.28981018	1.0
6	0	2.32246995	0	-11.53066635	15.79078674	-91.33878326	1.0
7	0	2.32246995	0	-11.57243252	15.78996658	-91.33269501	1.0
8	0	2.32246995	0	-11.58530331	15.80293751	-91.43833923	1.0
[Head]
1	0	1.409579992	0.1818799973	-3.583385706	9.06842804	-93.12471771	1.0
2	0	1.409579992	0.1818799973	-3.579604626	9.074603081	-93.09397888	1.0
3	0	1.409579992	0.1818799973	-3.546971798	9.098449707	-93.11927795	1.0
4	0	1.409579992	0.1818799973	-3.516234398	9.149414063	-93.14379883	1.0
5	0	1.409579992	0.1818799973	-3.519573212	9.131621361	-93.15268707	1.0
6	0	1.409579992	0.1818799973	-3.55851841	9.114819527	-93.16223907	1.0
7	0	1.409579992	0.1818799973	-3.567831039	9.120637894	-93.22800446	1.0
8	0	1.409579992	0.1818799973	-3.540774107	9.134596825	-93.1805191	1.0
[LeftShoulder]
1	0.3668199778	1.946700096	-0.02662999928	-16.25830269	-12.29916859	0.3856735229	1.0
2	0.3668199778	1.946700096	-0.02662999928	-16.32449341	-12.29094028	0.3721347451	1.0
3	0.3668199778	1.946700096	-0.02662999928	-17.0624752	-12.27703762	0.5236273408	1.0
4	0.3668199778	1.946700096	-0.02662999928	-16.61800194	-12.23415852	0.436614871	1.0
5	0.3668199778	1.946700096	-0.02662999928	-16.31913185	-12.30520535	0.3263216615	1.0
6	0.3668199778	1.946700096	-0.02662999928	-16.81562805	-12.30345726	0.4515327513	1.0
7	0.3668199778	1.946700096	-0.02662999928	-16.40070724	-12.38590431	0.2994044423	1.0
8	0.3668199778	1.946700096	-0.02662999928	-16.44421577	-12.3092947	0.2716848254	1.0
[LeftArm]
1	1.140689969	0	0	37.96441269	-1.003243566	-60.13046265	1.0
2	1.140689969	0	0	37.94870758	-0.983518064	-60.18827438	1.0
3	1.140689969	0	0	38.23750687	-0.3601874113	-60.4792366	1.0
4	1.140689969	0	0	38.02792358	-0.7935118675	-60.45472717	1.0
5	1.140689969	0	0	37.93298721	-1.068205357	-60.39995956	1.0
6	1.140689969	0	0	38.12221527	-0.6896253228	-60.57687759	1.0
7	1.140689969	0	0	38.01665115	-1.01185298	-60.44257355	1.0
8	1.140689969	0	0	37.99871063	-0.9447587132	-60.49418259	1.0
[LeftForeArm]
1	2.749800205	0	0	55.8369751	-135.5070038	-23.39595032	1.0
2	2.749800205	0	0	55.82938004	-135.4593506	-23.42090416	1.0
3	2.749800205	0	0	55.86419678	-135.3796539	-23.4704113	1.0
4	2.749800205	0	0	55.87368774	-135.3619995	-23.46498489	1.0
5	2.749800205	0	0	55.90900421	-135.432724	-23.47250366	1.0
6	2.749800205	0	0	55.92315674	-135.3454895	-23.45824623	1.0
7	2.749800205	0	0	56.02313232	-135.4568329	-23.51402283	1.0
8	2.749800205	0	0	55.973526	-135.3191833	-23.48244286	1.0
[LeftHand]
1	2.295179844	0	0	-0.9011323452	-19.77315521	17.32301521	1.0
2	2.295179844	0	0	-0.9117797613	-19.79898643	17.3425312	1.0
3	2.295179844	0	0	-0.9245914221	-19.88744736	17.48196411	1.0
4	2.295179844	0	0	-0.8961616755	-19.90880394	17.52883148	1.0
5	2.295179844	0	0	-0.9291078448	-19.84634972	17.42323875	1.0
6	2.295179844	0	0	-0.7850308418	-19.90999794	17.361763	1.0
7	2.295179844	0	0	-0.8952423334	-19.83913994	17.25484467	1.0
8	2.295179844	0	0	-0.7515413165	-19.94818878	17.32054901	1.0
[RightShoulder]
1	-0.3601199985	1.946700096	-0.02662999928	-7.579390526	2.843157291	173.5707397	1.0
2	-0.3601199985	1.946700096	-0.02662999928	-7.546180725	2.832525492	173.6112671	1.0
3	-0.3601199985	1.946700096	-0.02662999928	-7.655168056	2.770275593	173.5169373	1.0
4	-0.3601199985	1.946700096	-0.02662999928	-7.462812424	2.802575588	173.6238861	1.0
5	-0.3601199985	1.946700096	-0.02662999928	-7.390650749	2.794837713	173.635788	1.0
6	-0.3601199985	1.946700096	-0.02662999928	-7.443607807	2.834597588	173.5935974	1.0
7	-0.3601199985	1.946700096	-0.02662999928	-7.534233093	2.80657649	173.5949707	1.0
8	-0.3601199985	1.946700096	-0.02662999928	-7.58691597	2.771645308	173.5583191	1.0
[RightArm]
1	-1.140689969	0	0	55.17658997	6.29859066	-105.7584763	1.0
2	-1.140689969	0	0	55.19872284	6.345584869	-105.7284698	1.0
3	-1.140689969	0	0	55.36851883	6.281148911	-105.5671997	1.0
4	-1.140689969	0	0	55.24420929	6.508896351	-105.6454926	1.0
5	-1.140689969	0	0	55.36474609	6.580401421	-105.594841	1.0
6	-1.140689969	0	0	55.36183548	6.47705555	-105.5834122	1.0
7	-1.140689969	0	0	55.31150055	6.320570946	-105.568222	1.0
8	-1.140689969	0	0	55.19548798	6.284780502	-105.5776367	1.0
[RightForeArm]
1	-2.749800205	0	0	-105.6312408	45.22064209	31.89538574	1.0
2	-2.749800205	0	0	-105.4984131	45.18039703	31.909729	1.0
3	-2.749800205	0	0	-105.4207687	45.09914398	31.93748665	1.0
4	-2.749800205	0	0	-105.7063293	45.06958771	31.75696373	1.0
5	-2.749800205	0	0	-105.4154968	44.94546509	31.83494759	1.0
6	-2.749800205	0	0	-105.3709412	44.84672546	31.85877991	1.0
7	-2.749800205	0	0	-105.3924408	44.83387756	31.82805252	1.0
8	-2.749800205	0	0	-105.6329956	44.95909882	31.75858307	1.0
[RightHand]
1	-2.295179844	0	0	1.577587247	17.39469337	155.0251923	1.0
2	-2.295179844	0	0	1.680261731	17.33398819	155.2425842	1.0
3	-2.295179844	0	0	1.605224133	17.31890869	155.2428741	1.0
4	-2.295179844	0	0	1.592881441	17.34037781	155.225174	1.0
5	-2.295179844	0	0	1.583072782	17.32643127	155.2118225	1.0
6	-2.295179844	0	0	1.45006752	17.38440132	155.2657928	1.0
7	-2.295179844	0	0	1.475293159	17.41113281	155.3602448	1.0
8	-2.295179844	0	0	1.526147842	17.40911865	155.3726349	1.0
[LeftUpLeg]
1	0.9094099998	0	0	-8.315574646	4.392792225	94.11973572	1.0
2	0.9094099998	0	0	-7.965547562	4.407010078	94.20600128	1.0
3	0.9094099998	0	0	-7.745583534	4.448386192	94.24905396	1.0
4	0.9094099998	0	0	-7.591532707	4.327693939	94.26837158	1.0
5	0.9094099998	0	0	-7.588566303	4.272086143	94.3059845	1.0
6	0.9094099998	0	0	-7.80698204	4.588882446	94.30016327	1.0
7	0.9094099998	0	0	-7.784340858	4.188838005	94.48794556	1.0
8	0.9094099998	0	0	-7.668971062	4.292581081	94.53916931	1.0
[LeftLeg]
1	0	-4.498080254	0	8.250680923	-1.501067281	86.30776978	1.0
2	0	-4.498080254	0	7.775588512	-1.573848963	86.24272156	1.0
3	0	-4.498080254	0	7.4243927	-1.700360894	86.1689682	1.0
4	0	-4.498080254	0	7.174165249	-1.492476702	86.230896	1.0
5	0	-4.498080254	0	7.170281887	-1.224808574	86.34302521	1.0
6	0	-4.498080254	0	7.484418869	-1.183135748	86.55736542	1.0
7	0	-4.498080254	0	7.410395622	-1.108981848	86.37774658	1.0
8	0	-4.498080254	0	7.319377899	-1.213088512	86.45693207	1.0
[LeftFoot]
1	0	-3.729400158	0	-74.08939362	111.5232773	-23.78361511	1.0
2	0	-3.729400158	0	-73.98511505	111.7822266	-23.78715324	1.0
3	0	-3.729400158	0	-73.64094543	111.8479614	-23.61517906	1.0
4	0	-3.729400158	0	-73.49476624	111.7413864	-23.6996727	1.0
5	0	-3.729400158	0	-73.69556427	111.4853058	-24.02250671	1.0
6	0	-3.729400158	0	-74.00984955	110.8240204	-24.49181938	1.0
7	0	-3.729400158	0	-73.25520325	111.0925751	-23.75378036	1.0
8	0	-3.729400158	0	-73.04010773	110.905838	-23.74503326	1.0
[LeftToeBase]
1	0	-0.5911099911	1.364109993	0	0	0	1.0
2	0	-0.5911099911	1.364109993	0	0	0	1.0
3	0	-0.5911099911	1.364109993	0	0	0	1.0
4	0	-0.5911099911	1.364109993	0	0	0	1.0
5	0	-0.5911099911	1.364109993	0	0	0	1.0
6	0	-0.5911099911	1.364109993	0	0	0	1.0
7	0	-0.5911099911	1.364109993	0	0	0	1.0
8	0	-0.5911099911	1.364109993	0	0	0	1.0
[RightUpLeg]
1	-0.9094099998	0	0	3.431332827	-10.04802704	87.55039978	1.0
2	-0.9094099998	0	0	3.560375452	-10.02431583	87.5958252	1.0
3	-0.9094099998	0	0	3.527607441	-10.05296612	87.59941864	1.0
4	-0.9094099998	0	0	3.527052879	-9.981225967	87.61901093	1.0
5	-0.9094099998	0	0	3.595719576	-10.12732887	87.70054626	1.0
6	-0.9094099998	0	0	3.47385335	-10.09939766	87.82846832	1.0
7	-0.9094099998	0	0	3.458640575	-10.00605488	87.94689941	1.0
8	-0.9094099998	0	0	3.529154539	-10.10248947	88.03587341	1.0
[RightLeg]
1	0	-4.498080254	0	13.14498997	-3.998715401	87.14764404	1.0
2	0	-4.498080254	0	13.1603756	-4.024655342	87.11220551	1.0
3	0	-4.498080254	0	13.38524437	-3.738615513	87.13882446	1.0
4	0	-4.498080254	0	13.52287579	-3.724983692	87.14149475	1.0
5	0	-4.498080254	0	13.46183109	-3.869069815	87.05027008	1.0
6	0	-4.498080254	0	13.67010403	-3.801039219	87.09315491	1.0
7	0	-4.498080254	0	13.82480431	-4.179987907	87.09510803	1.0
8	0	-4.498080254	0	13.93072987	-4.192759991	87.08467865	1.0
[RightFoot]
1	0	-3.729400158	0	40.07056427	57.37574768	94.34359741	1.0
2	0	-3.729400158	0	40.11048889	57.38586044	94.37202454	1.0
3	0	-3.729400158	0	39.60889053	57.36197662	93.97393036	1.0
4	0	-3.729400158	0	39.35014343	57.40747833	93.79528809	1.0
5	0	-3.729400158	0	39.54311752	57.55438614	94.1761322	1.0
6	0	-3.729400158	0	38.87579727	57.65304565	93.71585846	1.0
7	0	-3.729400158	0	38.57133484	57.83726501	93.6232605	1.0
8	0	-3.729400158	0	38.26941681	57.97346878	93.47222137	1.0
[RightToeBase]
1	0	-0.5911099911	1.364109993	0	0	0	1.0
2	0	-0.5911099911	1.364109993	0	0	0	1.0
3	0	-0.5911099911	1.364109993	0	0	0	1.0
4	0	-0.5911099911	1.364109993	0	0	0	1.0
5	0	-0.5911099911	1.364109993	0	0	0	1.0
6	0	-0.5911099911	1.364109993	0	0	0	1.0
7	0	-0.5911099911	1.364109993	0	0	0	1.0
8	0	-0.5911099911	1.364109993	0	0	0	1.0
[EndOfFile]
